<svg xmlns="http://www.w3.org/2000/svg" xmlns:xlink="http://www.w3.org/1999/xlink" width="500" zoomAndPan="magnify" viewBox="0 0 375 374.999991" height="500" preserveAspectRatio="xMidYMid meet" version="1.0"><defs><g/><clipPath id="id1"><path d="M 118.011719 166.550781 L 151 166.550781 L 151 208.550781 L 118.011719 208.550781 Z M 118.011719 166.550781 " clip-rule="nonzero"/></clipPath></defs><g clip-path="url(#id1)"><path fill="#ffffff" d="M 134.511719 169.871094 C 133.652344 169.871094 132.804688 169.953125 131.964844 170.121094 C 131.125 170.285156 130.308594 170.53125 129.515625 170.855469 C 128.722656 171.183594 127.972656 171.582031 127.257812 172.054688 C 126.546875 172.527344 125.886719 173.066406 125.28125 173.667969 C 124.671875 174.269531 124.132812 174.921875 123.65625 175.628906 C 123.179688 176.335938 122.777344 177.085938 122.449219 177.871094 C 122.121094 178.65625 121.875 179.464844 121.707031 180.300781 C 121.539062 181.136719 121.457031 181.976562 121.457031 182.828125 C 121.457031 183.679688 121.539062 184.523438 121.707031 185.359375 C 121.875 186.191406 122.121094 187.003906 122.449219 187.789062 C 122.777344 188.574219 123.179688 189.320312 123.65625 190.027344 C 124.132812 190.734375 124.671875 191.390625 125.28125 191.992188 C 125.886719 192.59375 126.546875 193.132812 127.257812 193.605469 C 127.972656 194.078125 128.722656 194.476562 129.515625 194.800781 C 130.308594 195.128906 131.125 195.371094 131.964844 195.539062 C 132.804688 195.703125 133.652344 195.789062 134.511719 195.789062 C 135.367188 195.789062 136.21875 195.703125 137.058594 195.539062 C 137.898438 195.371094 138.714844 195.128906 139.507812 194.800781 C 140.300781 194.476562 141.050781 194.078125 141.765625 193.605469 C 142.476562 193.132812 143.136719 192.59375 143.742188 191.992188 C 144.347656 191.390625 144.890625 190.734375 145.367188 190.027344 C 145.84375 189.320312 146.246094 188.574219 146.574219 187.789062 C 146.902344 187.003906 147.148438 186.191406 147.316406 185.359375 C 147.484375 184.523438 147.566406 183.679688 147.566406 182.828125 C 147.566406 181.980469 147.480469 181.136719 147.3125 180.300781 C 147.144531 179.46875 146.898438 178.660156 146.570312 177.871094 C 146.242188 177.085938 145.839844 176.339844 145.363281 175.632812 C 144.886719 174.925781 144.34375 174.273438 143.738281 173.671875 C 143.132812 173.070312 142.472656 172.53125 141.761719 172.058594 C 141.050781 171.585938 140.296875 171.1875 139.503906 170.859375 C 138.714844 170.535156 137.898438 170.289062 137.058594 170.121094 C 136.21875 169.957031 135.367188 169.871094 134.511719 169.871094 Z M 134.511719 194.253906 C 133.753906 194.253906 133.007812 194.179688 132.265625 194.03125 C 131.523438 193.886719 130.804688 193.671875 130.105469 193.382812 C 129.410156 193.097656 128.746094 192.746094 128.117188 192.328125 C 127.488281 191.910156 126.90625 191.4375 126.375 190.90625 C 125.839844 190.375 125.363281 189.800781 124.941406 189.175781 C 124.523438 188.550781 124.167969 187.894531 123.878906 187.199219 C 123.589844 186.507812 123.371094 185.792969 123.222656 185.058594 C 123.078125 184.324219 123.003906 183.578125 123.003906 182.828125 C 123.003906 182.078125 123.078125 181.335938 123.222656 180.601562 C 123.371094 179.867188 123.589844 179.152344 123.878906 178.457031 C 124.167969 177.765625 124.523438 177.105469 124.941406 176.484375 C 125.363281 175.859375 125.839844 175.28125 126.375 174.753906 C 126.90625 174.222656 127.488281 173.75 128.117188 173.332031 C 128.746094 172.914062 129.410156 172.5625 130.105469 172.277344 C 130.804688 171.988281 131.523438 171.773438 132.265625 171.625 C 133.007812 171.480469 133.753906 171.40625 134.511719 171.40625 C 135.265625 171.40625 136.015625 171.480469 136.757812 171.625 C 137.496094 171.773438 138.21875 171.988281 138.914062 172.277344 C 139.613281 172.5625 140.277344 172.914062 140.90625 173.332031 C 141.535156 173.75 142.113281 174.222656 142.648438 174.753906 C 143.183594 175.28125 143.660156 175.859375 144.082031 176.484375 C 144.5 177.105469 144.855469 177.765625 145.144531 178.457031 C 145.433594 179.152344 145.652344 179.867188 145.800781 180.601562 C 145.945312 181.335938 146.019531 182.078125 146.019531 182.828125 C 146.019531 183.578125 145.945312 184.320312 145.796875 185.058594 C 145.648438 185.792969 145.429688 186.507812 145.140625 187.199219 C 144.851562 187.890625 144.496094 188.550781 144.078125 189.171875 C 143.65625 189.796875 143.179688 190.371094 142.644531 190.902344 C 142.109375 191.433594 141.53125 191.90625 140.902344 192.324219 C 140.273438 192.738281 139.613281 193.09375 138.914062 193.378906 C 138.214844 193.667969 137.496094 193.882812 136.753906 194.03125 C 136.015625 194.175781 135.265625 194.25 134.511719 194.253906 Z M 134.511719 166.5625 C 133.976562 166.5625 133.441406 166.589844 132.90625 166.640625 C 132.371094 166.695312 131.839844 166.773438 131.316406 166.875 C 130.789062 166.980469 130.269531 167.109375 129.753906 167.265625 C 129.242188 167.421875 128.738281 167.601562 128.242188 167.804688 C 127.746094 168.007812 127.261719 168.234375 126.789062 168.488281 C 126.316406 168.738281 125.855469 169.011719 125.410156 169.308594 C 124.964844 169.605469 124.535156 169.921875 124.117188 170.257812 C 123.703125 170.597656 123.304688 170.953125 122.925781 171.332031 C 122.546875 171.707031 122.1875 172.101562 121.847656 172.515625 C 121.507812 172.925781 121.1875 173.351562 120.890625 173.796875 C 120.589844 174.238281 120.316406 174.695312 120.0625 175.164062 C 119.808594 175.632812 119.578125 176.113281 119.375 176.605469 C 119.167969 177.097656 118.988281 177.597656 118.832031 178.109375 C 118.675781 178.617188 118.542969 179.132812 118.4375 179.65625 C 118.332031 180.179688 118.253906 180.707031 118.203125 181.234375 C 118.148438 181.765625 118.121094 182.296875 118.121094 182.828125 C 118.121094 186.351562 119.320312 189.820312 121.785156 193.433594 C 125.011719 198.167969 133.566406 207.902344 133.929688 208.3125 C 134.003906 208.398438 134.089844 208.460938 134.191406 208.507812 C 134.292969 208.554688 134.398438 208.574219 134.511719 208.574219 C 134.625 208.574219 134.730469 208.554688 134.832031 208.507812 C 134.933594 208.460938 135.019531 208.398438 135.09375 208.3125 C 135.457031 207.902344 144.011719 198.167969 147.238281 193.433594 C 149.703125 189.820312 150.902344 186.351562 150.902344 182.828125 C 150.902344 182.296875 150.875 181.765625 150.820312 181.234375 C 150.769531 180.707031 150.6875 180.179688 150.585938 179.65625 C 150.480469 179.132812 150.347656 178.617188 150.191406 178.109375 C 150.035156 177.597656 149.855469 177.097656 149.648438 176.605469 C 149.445312 176.113281 149.214844 175.632812 148.960938 175.164062 C 148.707031 174.695312 148.433594 174.238281 148.132812 173.796875 C 147.835938 173.351562 147.515625 172.925781 147.175781 172.515625 C 146.835938 172.101562 146.476562 171.707031 146.097656 171.332031 C 145.714844 170.953125 145.320312 170.597656 144.90625 170.257812 C 144.488281 169.921875 144.058594 169.605469 143.613281 169.308594 C 143.167969 169.011719 142.707031 168.738281 142.234375 168.488281 C 141.761719 168.234375 141.277344 168.007812 140.78125 167.804688 C 140.285156 167.601562 139.78125 167.421875 139.265625 167.265625 C 138.753906 167.109375 138.234375 166.980469 137.707031 166.875 C 137.179688 166.773438 136.652344 166.695312 136.117188 166.640625 C 135.582031 166.589844 135.046875 166.5625 134.511719 166.5625 Z M 145.957031 192.574219 C 143.261719 196.527344 136.53125 204.316406 134.511719 206.636719 C 132.488281 204.316406 125.761719 196.527344 123.066406 192.574219 C 120.78125 189.222656 119.667969 186.035156 119.667969 182.828125 C 119.667969 181.863281 119.765625 180.90625 119.953125 179.957031 C 120.144531 179.007812 120.425781 178.085938 120.800781 177.195312 C 121.171875 176.300781 121.628906 175.453125 122.171875 174.648438 C 122.714844 173.84375 123.328125 173.101562 124.019531 172.417969 C 124.707031 171.734375 125.457031 171.121094 126.265625 170.585938 C 127.078125 170.046875 127.933594 169.59375 128.832031 169.226562 C 129.734375 168.855469 130.660156 168.574219 131.617188 168.386719 C 132.570312 168.199219 133.539062 168.105469 134.511719 168.105469 C 135.484375 168.105469 136.449219 168.199219 137.40625 168.386719 C 138.363281 168.574219 139.289062 168.855469 140.191406 169.226562 C 141.089844 169.59375 141.945312 170.046875 142.753906 170.585938 C 143.566406 171.121094 144.316406 171.734375 145.003906 172.417969 C 145.695312 173.101562 146.308594 173.84375 146.851562 174.648438 C 147.390625 175.453125 147.847656 176.300781 148.222656 177.195312 C 148.597656 178.085938 148.878906 179.007812 149.066406 179.957031 C 149.257812 180.90625 149.355469 181.863281 149.355469 182.828125 C 149.355469 186.035156 148.242188 189.222656 145.957031 192.574219 Z M 143.488281 178.175781 C 143.496094 177.867188 143.367188 177.636719 143.097656 177.484375 L 134.898438 172.808594 C 134.640625 172.660156 134.382812 172.660156 134.125 172.808594 L 125.925781 177.484375 C 125.652344 177.640625 125.523438 177.871094 125.539062 178.183594 C 125.539062 178.195312 125.535156 178.207031 125.535156 178.222656 L 125.535156 187.503906 C 125.535156 187.804688 125.664062 188.027344 125.925781 188.175781 L 134.125 192.847656 C 134.382812 192.996094 134.640625 192.996094 134.898438 192.847656 L 143.101562 188.175781 C 143.359375 188.027344 143.488281 187.804688 143.488281 187.507812 Z M 134.511719 181.269531 L 132.660156 180.371094 L 138.835938 176.832031 L 141.054688 178.097656 Z M 130.277344 179.214844 L 136.683594 175.605469 L 137.28125 175.945312 L 130.976562 179.554688 Z M 129.390625 180.503906 L 130.230469 180.910156 L 130.230469 184.328125 L 129.390625 183.941406 Z M 134.511719 174.367188 L 135.121094 174.714844 L 128.585938 178.394531 L 127.96875 178.097656 Z M 127.085938 187.058594 L 127.085938 179.382812 L 127.839844 179.75 L 127.839844 184.433594 C 127.839844 184.761719 127.988281 184.996094 128.289062 185.132812 L 130.683594 186.230469 C 130.800781 186.289062 130.929688 186.3125 131.0625 186.300781 C 131.191406 186.292969 131.316406 186.253906 131.425781 186.183594 C 131.539062 186.113281 131.625 186.019531 131.691406 185.902344 C 131.753906 185.789062 131.785156 185.664062 131.785156 185.535156 L 131.785156 181.660156 L 133.738281 182.605469 L 133.738281 190.851562 Z M 135.289062 190.851562 L 135.289062 182.605469 L 141.9375 179.382812 L 141.9375 187.058594 Z M 135.289062 190.851562 " fill-opacity="1" fill-rule="nonzero"/></g><g fill="#ffffff" fill-opacity="1"><g transform="translate(154.297098, 194.249987)"><g><path d="M 2.660156 -18.757812 L 2.660156 0 L 12.683594 0 L 12.683594 -3.640625 L 6.328125 -3.640625 L 6.328125 -18.757812 Z M 2.660156 -18.757812 "/></g></g></g><g fill="#ffffff" fill-opacity="1"><g transform="translate(168.967095, 194.249987)"><g><path d="M 7.335938 0.28125 C 11.085938 0.28125 12.992188 -1.792969 12.992188 -5.824219 L 12.992188 -9.128906 C 12.992188 -13.160156 11.085938 -15.230469 7.335938 -15.230469 C 3.582031 -15.230469 1.679688 -13.160156 1.679688 -9.128906 L 1.679688 -5.824219 C 1.679688 -1.792969 3.582031 0.28125 7.335938 0.28125 Z M 7.335938 -3.023438 C 5.933594 -3.023438 5.347656 -3.695312 5.347656 -5.402344 L 5.347656 -9.546875 C 5.347656 -11.253906 5.933594 -11.925781 7.335938 -11.925781 C 8.734375 -11.925781 9.324219 -11.253906 9.324219 -9.546875 L 9.324219 -5.402344 C 9.324219 -3.695312 8.734375 -3.023438 7.335938 -3.023438 Z M 7.335938 -3.023438 "/></g></g></g><g fill="#ffffff" fill-opacity="1"><g transform="translate(183.637093, 194.249987)"><g><path d="M 9.660156 -13.074219 C 9.128906 -14.53125 8.035156 -15.230469 6.300781 -15.230469 C 3.246094 -15.230469 1.597656 -13.101562 1.597656 -9.128906 L 1.597656 -5.824219 C 1.597656 -1.847656 3.246094 0.28125 6.300781 0.28125 C 7.644531 0.28125 8.59375 -0.140625 9.210938 -1.007812 L 9.210938 0.363281 C 9.210938 1.652344 8.566406 2.296875 7.308594 2.296875 L 2.519531 2.296875 L 2.519531 5.597656 L 7.222656 5.597656 C 11.085938 5.597656 12.878906 3.949219 12.878906 0.363281 L 12.878906 -14.8125 L 9.9375 -14.8125 Z M 7.222656 -3.191406 C 5.90625 -3.191406 5.261719 -3.917969 5.261719 -5.402344 L 5.261719 -9.546875 C 5.261719 -11.03125 5.90625 -11.757812 7.222656 -11.757812 C 8.539062 -11.757812 9.210938 -11.03125 9.210938 -10.164062 L 9.210938 -4.789062 C 9.210938 -3.917969 8.539062 -3.191406 7.222656 -3.191406 Z M 7.222656 -3.191406 "/></g></g></g><g fill="#ffffff" fill-opacity="1"><g transform="translate(198.307091, 194.249987)"><g><path d="M 9.464844 -16.519531 L 9.464844 -20.410156 L 5.796875 -20.410156 L 5.796875 -16.519531 Z M 13.746094 0 L 13.746094 -3.304688 L 9.433594 -3.304688 L 9.433594 -14.8125 L 2.519531 -14.8125 L 2.519531 -11.535156 L 5.796875 -11.535156 L 5.796875 -3.304688 L 1.34375 -3.304688 L 1.34375 0 Z M 13.746094 0 "/></g></g></g><g fill="#ffffff" fill-opacity="1"><g transform="translate(212.977088, 194.249987)"><g><path d="M 5.011719 0 L 5.011719 -11.113281 L 6.605469 -6.746094 L 8.0625 -6.746094 L 9.6875 -11.113281 L 9.6875 0 L 13.355469 0 L 13.355469 -18.757812 L 9.6875 -18.757812 L 7.335938 -11.449219 L 5.011719 -18.757812 L 1.34375 -18.757812 L 1.34375 0 Z M 5.011719 0 "/></g></g></g><g fill="#ffffff" fill-opacity="1"><g transform="translate(227.647086, 194.249987)"><g><path d="M 13.496094 -3.050781 C 12.960938 -3.050781 12.710938 -3.277344 12.710938 -3.917969 L 12.710938 -14.8125 L 9.769531 -14.8125 L 9.492188 -13.074219 C 8.960938 -14.53125 7.867188 -15.230469 6.132812 -15.230469 C 3.078125 -15.230469 1.429688 -13.101562 1.429688 -9.128906 L 1.429688 -5.824219 C 1.429688 -1.847656 3.078125 0.28125 6.132812 0.28125 C 7.839844 0.28125 8.902344 -0.421875 9.464844 -1.792969 C 9.996094 -0.671875 11.113281 0 12.933594 0 L 14.027344 0 L 14.027344 -3.050781 Z M 7.054688 -3.191406 C 5.738281 -3.191406 5.09375 -3.917969 5.09375 -5.402344 L 5.09375 -9.546875 C 5.09375 -11.03125 5.738281 -11.757812 7.054688 -11.757812 C 8.371094 -11.757812 9.042969 -11.03125 9.042969 -10.164062 L 9.042969 -4.789062 C 9.042969 -3.917969 8.371094 -3.191406 7.054688 -3.191406 Z M 7.054688 -3.191406 "/></g></g></g><g fill="#ffffff" fill-opacity="1"><g transform="translate(242.317083, 194.249987)"><g><path d="M 9.210938 -13.972656 C 8.59375 -14.8125 7.644531 -15.230469 6.300781 -15.230469 C 3.246094 -15.230469 1.597656 -13.101562 1.597656 -9.128906 L 1.597656 -5.824219 C 1.597656 -1.847656 3.246094 0.28125 6.300781 0.28125 C 8.035156 0.28125 9.097656 -0.421875 9.632812 -1.820312 L 9.9375 0 L 12.878906 0 L 12.878906 -20.71875 L 9.210938 -20.71875 Z M 7.25 -3.191406 C 5.90625 -3.191406 5.261719 -3.917969 5.261719 -5.402344 L 5.261719 -9.546875 C 5.261719 -11.03125 5.90625 -11.757812 7.25 -11.757812 C 8.566406 -11.757812 9.210938 -11.03125 9.210938 -10.164062 L 9.210938 -4.789062 C 9.210938 -3.917969 8.566406 -3.191406 7.25 -3.191406 Z M 7.25 -3.191406 "/></g></g></g></svg>